<svg width="151" height="377" viewBox="0 0 151 377" fill="none" xmlns="http://www.w3.org/2000/svg">
<g clip-path="url(#clip0_1_6)">
<path d="M5.0761 138.082C4.05165 142.894 17.351 151.032 20.2767 147.723C24.1345 143.345 36.6402 124.929 43.8667 116.265C48.0014 109.961 62.4637 91.1115 60.5347 79.5717C33.9914 72.6035 6.76505 130.146 5.0761 138.082Z" fill="#DA2117"/>
<path d="M2.63034 139.409C2.63034 139.409 4.3839 131.593 6.66353 132.644C8.93393 133.686 24.2453 143.105 23.9038 143.861C23.5531 144.617 20.009 150.323 19.0307 150.064C18.0524 149.806 2.51959 142.847 2.63957 139.419L2.63034 139.409Z" fill="#EA3523"/>
<path d="M54.4065 356.483C54.4065 356.483 50.7794 365.608 48.0753 369.488C45.7495 372.815 45.7403 374.604 49.0628 376.594C52.7083 377.009 57.9875 376.871 65.5647 376.023C68.3704 373.783 70.1701 371.848 68.2781 368.917C66.9306 366.225 65.3894 356.741 65.3894 356.741L54.3973 356.501L54.4065 356.483Z" fill="#81896E"/>
<path d="M65.9154 359.672C65.6016 357.967 65.3986 356.722 65.3986 356.722L54.4065 356.483C54.4065 356.483 53.7789 358.059 52.856 360.169C57.203 360.64 61.5592 360.658 65.9154 359.681V359.672Z" fill="#646C5A"/>
<path d="M57.8306 364.234C51.0471 364.234 45.5557 368.668 45.5557 374.124H70.0963C70.0963 368.658 64.6049 364.234 57.8214 364.234H57.8306Z" fill="#9FA681"/>
<path d="M57.5629 372.751C52.0992 372.788 46.1832 373.507 45.5649 374.124C45.6387 375.009 46.3586 376.742 46.5063 377H68.9518C69.5702 376.493 69.9763 374.834 70.1055 374.124C69.3487 373.802 64.0234 372.705 57.5629 372.751Z" fill="#481925"/>
<path d="M65.7308 367.635C65.6478 367.635 65.5647 367.608 65.4909 367.552C65.4632 367.534 62.7959 365.608 58.772 365.525C54.7203 365.423 51.85 366.981 51.8223 366.99C51.6285 367.101 51.3886 367.027 51.2778 366.833C51.1671 366.631 51.2409 366.391 51.4347 366.29C51.5639 366.225 54.5265 364.649 58.7904 364.723C63.0728 364.815 65.8508 366.833 65.9616 366.916C66.1369 367.055 66.1831 367.304 66.0446 367.479C65.9708 367.589 65.8416 367.645 65.7216 367.645L65.7308 367.635Z" fill="#481925"/>
<path d="M64.8172 364.778C64.7341 364.778 64.651 364.75 64.5772 364.695C64.5772 364.695 62.3806 363.036 59.1135 362.971C55.8002 362.889 53.4652 364.225 53.4375 364.234C53.2529 364.345 53.0037 364.271 52.8929 364.078C52.7822 363.893 52.8468 363.644 53.0406 363.534C53.1421 363.469 55.634 362.133 59.1319 362.17C62.676 362.234 64.974 363.985 65.0756 364.059C65.2509 364.197 65.2786 364.446 65.1494 364.621C65.0756 364.732 64.9464 364.778 64.8264 364.778H64.8172Z" fill="#481925"/>
<path d="M64.3834 362.068C64.2819 362.068 64.1896 362.041 64.1157 361.976C64.1157 361.976 62.2883 360.354 59.5565 360.308C56.7969 360.262 54.8219 361.58 54.8034 361.589C54.628 361.709 54.3789 361.663 54.2496 361.478C54.1297 361.294 54.1758 361.045 54.3604 360.916C54.4527 360.852 56.5385 359.441 59.5842 359.497C62.6298 359.552 64.5864 361.294 64.6695 361.368C64.8356 361.524 64.8448 361.773 64.6972 361.939C64.6141 362.022 64.5126 362.068 64.4018 362.068H64.3834Z" fill="#481925"/>
<path d="M79.6116 191.689C79.9347 182.103 51.3516 177.836 49.5242 187.256C44.3928 213.589 49.0351 268.007 49.0351 268.007H72.8466C72.8466 268.007 79.5655 192.943 79.6116 191.689Z" fill="#175168"/>
<path d="M60.5901 254.836C53.9635 255.002 48.7213 260.495 48.8874 267.122C49.0535 273.74 54.5634 278.985 61.1993 278.819C67.8259 278.662 73.0681 273.16 72.902 266.532C72.7358 259.915 67.2167 254.67 60.5901 254.836Z" fill="#175168"/>
<path d="M72.902 267.288C72.902 267.288 73.0127 292.433 72.7081 303.631C72.3021 318.167 66.8199 358.206 66.8199 358.206C66.8199 358.206 66.1092 359.487 59.981 359.506C55.0341 359.534 53.1513 358.732 53.1513 358.732C53.1513 358.732 50.4749 335.071 49.5704 305.761C48.9428 285.437 48.8874 267.473 48.8874 267.473L72.9204 267.288H72.902Z" fill="url(#paint0_linear_1_6)"/>
<path d="M60.5901 254.836C53.9635 255.002 48.7213 260.495 48.8874 267.122C49.0535 273.74 54.5634 278.985 61.1993 278.819C67.8259 278.662 73.0681 273.16 72.902 266.532C72.7358 259.915 67.2167 254.67 60.5901 254.836Z" fill="#175168"/>
<path d="M98.6516 356.483C98.6516 356.483 102.279 365.608 104.983 369.488C107.309 372.815 107.318 374.604 103.995 376.594C100.35 377.009 95.0707 376.871 87.4842 376.023C84.6785 373.783 82.8788 371.848 84.7708 368.917C86.1183 366.225 87.6596 356.741 87.6596 356.741L98.6516 356.501V356.483Z" fill="#81896E"/>
<path d="M87.1427 359.672C87.4658 357.967 87.6596 356.722 87.6596 356.722L98.6516 356.483C98.6516 356.483 99.2792 358.059 100.202 360.169C95.8552 360.64 91.4989 360.658 87.1427 359.681V359.672Z" fill="#646C5A"/>
<path d="M95.2276 364.234C102.002 364.234 107.502 368.668 107.502 374.124H82.9526C82.9526 368.658 88.4533 364.234 95.2276 364.234Z" fill="#9FA681"/>
<path d="M95.486 372.751C100.959 372.788 106.875 373.507 107.502 374.124C107.429 375.009 106.709 376.742 106.561 377H84.1155C83.4972 376.493 83.0911 374.834 82.9526 374.124C83.7187 373.802 89.0347 372.705 95.486 372.751Z" fill="#481925"/>
<path d="M87.3273 367.635C87.2073 367.635 87.0873 367.58 87.0043 367.469C86.8751 367.294 86.912 367.045 87.0873 366.907C87.1981 366.824 89.9761 364.806 94.2585 364.714C98.5409 364.649 101.485 366.216 101.614 366.28C101.808 366.382 101.882 366.621 101.771 366.824C101.67 367.018 101.43 367.092 101.227 366.981C101.199 366.972 98.2732 365.405 94.2769 365.515C90.2437 365.598 87.5949 367.534 87.558 367.543C87.4842 367.598 87.4011 367.626 87.3181 367.626L87.3273 367.635Z" fill="#481925"/>
<path d="M88.241 364.778C88.121 364.778 88.001 364.723 87.9272 364.621C87.7888 364.446 87.8165 364.197 87.9918 364.059C88.0933 363.985 90.3914 362.234 93.9355 362.17C97.4703 362.133 99.916 363.478 100.027 363.534C100.211 363.644 100.285 363.893 100.174 364.078C100.064 364.271 99.8145 364.336 99.6299 364.234C99.6022 364.216 97.2765 362.907 93.9539 362.971C90.6868 363.036 88.4902 364.695 88.4902 364.695C88.4071 364.76 88.3241 364.778 88.241 364.778Z" fill="#481925"/>
<path d="M88.684 362.068C88.5732 362.068 88.4625 362.031 88.3887 361.939C88.2318 361.773 88.2502 361.524 88.4071 361.368C88.4902 361.294 90.4468 359.552 93.4925 359.497C93.5478 359.497 93.594 359.497 93.6401 359.497C96.575 359.497 98.6239 360.861 98.707 360.925C98.8916 361.054 98.9377 361.303 98.8177 361.488C98.6978 361.672 98.4393 361.718 98.2547 361.598C98.2547 361.598 96.2335 360.271 93.5017 360.317C90.779 360.354 88.9516 361.985 88.9516 361.985C88.8686 362.05 88.7763 362.077 88.684 362.077V362.068Z" fill="#481925"/>
<path d="M73.4465 191.689C73.1235 182.103 101.697 177.836 103.534 187.256C108.665 213.589 104.023 268.007 104.023 268.007H80.2116C80.2116 268.007 73.4926 192.943 73.4557 191.689H73.4465Z" fill="#175168"/>
<path d="M92.468 254.836C99.1039 255.002 104.346 260.495 104.171 267.122C104.005 273.74 98.4947 278.985 91.8589 278.819C85.2323 278.662 79.9808 273.16 80.1562 266.532C80.3223 259.915 85.8414 254.67 92.468 254.836Z" fill="#175168"/>
<path d="M80.1562 267.288C80.1562 267.288 80.0454 292.433 80.3592 303.631C80.7653 318.167 86.2475 358.206 86.2475 358.206C86.2475 358.206 86.9674 359.487 93.0956 359.506C98.0425 359.534 99.9253 358.732 99.9253 358.732C99.9253 358.732 102.611 335.071 103.506 305.761C104.134 285.437 104.189 267.473 104.189 267.473L80.1562 267.288Z" fill="url(#paint1_linear_1_6)"/>
<path d="M92.4682 254.836C99.104 255.002 104.346 260.495 104.171 267.122C104.005 273.74 98.4949 278.985 91.859 278.819C85.2324 278.662 79.981 273.16 80.1563 266.532C80.3225 259.915 85.8416 254.67 92.4682 254.836Z" fill="#175168"/>
<path d="M144.272 135.428C145.472 140.193 132.458 148.792 129.413 145.585C125.407 141.345 112.274 123.372 104.752 114.956C100.405 108.799 85.2969 90.4663 86.8105 78.8619C113.095 70.9813 142.297 127.547 144.272 135.428Z" fill="#DA2117"/>
<path d="M146.764 136.663C146.764 136.663 144.733 128.92 142.5 130.045C140.257 131.169 125.287 141.115 125.656 141.852C126.035 142.599 129.782 148.175 130.742 147.88C131.711 147.576 146.994 140.092 146.755 136.663H146.764Z" fill="#EA3523"/>
<path d="M76.3537 186.343H102.897C102.897 187.901 104.263 195.394 104.263 197.413C104.263 208.658 98.7162 212.935 90.8067 212.935H61.9007C53.9912 212.935 48.4444 208.658 48.4444 197.413C48.4444 195.394 49.8103 187.901 49.8103 186.343H76.3537Z" fill="#175168"/>
<path d="M92.6895 72.8247C91.019 69.4973 80.5069 69.6632 74.8401 69.4973C69.1641 69.3314 59.5749 70.078 57.5721 73.5805C66.5799 82.2446 75.6707 91.4895 75.6707 91.4895L92.6895 72.8339V72.8247Z" fill="#DA2117"/>
<path d="M103.368 184.352L104.697 191.689C104.697 191.689 96.8611 195.348 76.1691 194.685C55.4863 194.012 48.1398 190.684 48.1398 190.684L49.9765 184.02L103.359 184.352H103.368Z" fill="#DA2117"/>
<path d="M48.389 160.461C48.9705 147.143 47.6691 117.519 47.5215 107.149C47.3923 97.9046 48.3337 82.005 51.0471 79.9035C56.6123 75.6175 63.6358 74.5852 76.5291 74.5852C89.4223 74.5852 96.455 75.6175 102.011 79.9035C104.734 82.005 105.666 97.9046 105.546 107.149C105.389 117.528 104.088 147.143 104.678 160.461C105.38 176.296 107.207 182.371 104.761 186.371C101.033 192.482 94.5723 191.791 76.5383 191.615C58.5043 191.781 52.0438 192.482 48.3152 186.371C45.8694 182.371 47.7061 176.296 48.3983 160.461H48.389Z" fill="#F53823"/>
<path d="M76.3352 74.576C80.7745 74.576 85.1492 74.9447 89.2193 75.5899C88.241 81.793 82.8511 88.7151 76.3352 88.7151C69.8194 88.7151 64.4387 81.793 63.4604 75.5899C67.5305 74.9447 71.896 74.576 76.3352 74.576Z" fill="#FFB382"/>
<g style="mix-blend-mode:multiply" opacity="0.2">
<path d="M55.4217 133.87C62.0853 130.248 69.5333 128.902 76.8798 128.137C84.5401 127.335 92.6895 126.966 99.953 130.137C100.202 130.248 100.193 130.672 99.8883 130.672C89.7915 130.625 79.9162 130.994 70.1886 132.93C76.5291 132.718 82.8788 132.662 89.3116 132.801C90.4653 132.828 90.4376 134.644 89.3116 134.727C81.4575 135.354 73.4188 137.289 65.9892 140.119C65.1217 140.451 64.3649 139.068 65.0756 138.423C67.4382 136.257 70.7423 136.054 73.7049 135.428C75.4954 135.05 77.2951 134.736 79.0948 134.441C71.4622 134.211 63.7281 134.266 56.5754 136.829C54.9695 137.391 53.9174 134.69 55.4217 133.87Z" fill="#E8393D"/>
</g>
<path d="M69.1087 65.3957H81.8451L82.3158 76.9264C79.2794 79.627 71.6376 79.1385 68.6381 76.9264L69.1087 65.3957Z" fill="#FFB382"/>
<path d="M75.4769 72.88C73.6126 72.88 70.9454 71.7187 68.8872 70.9352L69.1087 65.3865H81.8451L82.0574 70.6495C80.0085 71.4974 77.3597 72.8708 75.4769 72.8708V72.88Z" fill="#FA8C6B"/>
<path d="M66.7091 6.90362C66.7091 6.90362 80.8853 -0.101412 90.0222 4.37812C99.3346 8.94983 103.349 23.8448 103.349 23.8448L100.156 21.9368C100.156 21.9368 99.1684 39.3572 94.2585 48.9615C86.1644 43.339 56.8523 47.5328 56.8523 47.5328C56.8523 47.5328 49.072 37.9286 49.718 21.7432C50.3918 4.73759 66.7184 6.91284 66.7184 6.91284L66.7091 6.90362Z" fill="#521A25"/>
<path d="M92.2373 39.7444C92.7541 37.5138 94.6369 35.9192 96.815 36.8225C100.119 38.1775 100.387 42.998 98.9377 46.0489C98.0517 47.8923 95.9567 50.1874 93.9078 50.3717C92.2003 48.3716 91.2497 43.9935 92.228 39.7444H92.2373Z" fill="#FFA274"/>
<path d="M92.9756 39.7536C93.4555 38.7397 94.5261 38.1498 95.7352 38.6475C98.0609 39.5969 98.2548 43.0072 97.2303 45.1641C97.2026 45.2194 97.1657 45.2839 97.138 45.3484C97.6272 42.4542 96.3166 39.2098 92.9756 39.7536Z" fill="#FB8761"/>
<path d="M58.735 39.8273C58.2274 37.5968 56.3539 36.0114 54.1666 36.9239C50.8625 38.2881 50.5671 43.1178 51.9977 46.1595C52.8745 47.9937 54.9603 50.2888 57.0092 50.4547C58.7258 48.4546 59.6949 44.0672 58.735 39.8273Z" fill="#FFA274"/>
<path d="M57.7567 39.7536C57.2768 38.7397 56.2062 38.1498 54.9972 38.6475C52.6714 39.5969 52.4776 43.0072 53.4928 45.1641C53.5205 45.2194 53.5574 45.2839 53.5851 45.3484C53.096 42.4542 54.4065 39.2098 57.7475 39.7536H57.7567Z" fill="#FB8761"/>
<path d="M56.1693 16.4618H94.7846C94.7846 16.4618 95.3291 39.2743 94.8215 50.9248C94.4154 60.3447 87.2627 66.299 80.673 69.8937C79.0579 70.7693 77.0921 71.1195 75.4769 71.1656C73.8526 71.1195 71.8868 70.7785 70.2809 69.8937C63.6912 66.299 56.5385 60.3447 56.1324 50.9248C55.6248 39.2835 56.1693 16.4618 56.1693 16.4618Z" fill="url(#paint2_linear_1_6)"/>
<g style="mix-blend-mode:multiply" opacity="0.3">
<path d="M60.1656 30.7668C58.8827 32.9974 57.526 35.1911 55.9109 37.2096C55.9293 26.8864 56.1693 16.471 56.1693 16.471H94.7845C94.7845 16.471 95.0061 25.9924 95.0337 35.8455C92.8464 34.5459 90.899 33.1725 89.1916 30.9051C85.9614 37.311 84.6139 34.6565 82.0112 31.7346C76.8798 35.5321 64.5218 32.7577 60.1563 30.7668H60.1656Z" fill="#FF9585"/>
</g>
<path d="M59.7226 27.5132C59.7226 27.5132 57.0553 33.403 54.5911 37.2742C51.2962 33.2463 47.946 21.5128 53.6036 14.305C55.837 11.4569 58.7812 10.3324 65.2786 9.39227C74.434 6.24001 82.1404 5.2169 88.2318 7.52119C95.809 10.3785 98.6147 19.0242 101.42 28.6561C98.4947 28.5732 96.935 26.8956 96.935 26.8956C96.935 26.8956 97.9963 30.4074 96.2058 34.721C91.0928 30.1493 87.115 25.7159 87.115 25.7159C87.115 25.7159 88.6563 30.9512 84.8815 32.9882C83.3218 29.2552 77.3043 26.9049 72.1452 25.3103C72.9481 26.6376 75.9568 29.2368 78.4303 31.0802C71.6375 32.3246 63.2574 30.3152 59.7318 27.5132H59.7226Z" fill="url(#paint3_linear_1_6)"/>
<path d="M76.8521 39.3665C77.129 43.3667 78.2272 50.7036 78.5226 51.699C79.4455 54.7499 72.1359 54.7314 72.3297 52.1599C72.4313 50.7404 73.6126 43.6616 73.8064 39.3665C74.0648 39.3572 76.566 39.4033 76.8429 39.3665H76.8521Z" fill="url(#paint4_linear_1_6)"/>
<path opacity="0.9" d="M59.5287 49.1827C59.5011 51.6253 62.2237 53.9296 65.6108 54.3167C68.9887 54.713 71.7483 53.0447 71.776 50.6114C71.7944 48.1688 69.0718 45.8645 65.6939 45.4774C62.316 45.0811 59.5564 46.7402 59.5287 49.1827Z" fill="#FF8E76"/>
<path opacity="0.9" d="M91.7112 49.1827C91.7297 51.6253 89.0162 53.9296 85.6291 54.3167C82.2512 54.713 79.4916 53.0447 79.464 50.6114C79.4363 48.1688 82.1589 45.8645 85.5368 45.4774C88.924 45.0811 91.6743 46.7402 91.7112 49.1827Z" fill="#FF8E76"/>
<g style="mix-blend-mode:multiply" opacity="0.3">
<path d="M73.4188 65.8934C73.4188 66.4004 74.3417 66.8151 75.4769 66.8151C76.6121 66.8151 77.535 66.4004 77.535 65.8934C77.535 65.3865 76.6121 64.9625 75.4769 64.9625C74.3417 64.9625 73.4188 65.3773 73.4188 65.8934Z" fill="#FFA483"/>
</g>
<path d="M78.6241 52.2705C78.6241 52.2705 77.7104 54.0217 75.3569 53.9572C72.9112 53.9019 72.3482 52.1599 72.3482 52.1599C72.3482 52.1599 72.2467 54.7222 75.4216 54.7314C78.6518 54.7499 78.6241 52.2612 78.6241 52.2612V52.2705Z" fill="#DB5A4D"/>
<path d="M66.4968 6.26765C66.4968 6.26765 63.8296 0.0276401 61.9468 1.46552C60.0548 2.90339 66.4968 6.26765 66.4968 6.26765Z" fill="#642132"/>
<path d="M66.9768 6.17548C66.9768 6.17548 67.1798 -0.59913 69.4595 0.046071C71.7483 0.691272 66.9768 6.17548 66.9768 6.17548Z" fill="#642132"/>
<path d="M62.7774 14.0746C62.8421 21.2732 67.1706 26.0661 71.776 31.3567C71.1207 31.3107 70.4747 31.2369 69.8471 31.1447C64.6233 26.7297 61.7253 20.5358 62.2052 14.0746C62.2329 13.7428 62.7867 13.7428 62.7867 14.0746H62.7774Z" fill="#7E1B22"/>
<path d="M55.6894 35.4399C53.4467 31.2093 54.065 26.1583 54.9049 21.605C54.9603 21.3193 55.514 21.3838 55.4771 21.6787C54.9972 25.891 55.0802 30.0663 56.4554 34.0574C56.197 34.5182 55.9478 34.9883 55.6894 35.4399Z" fill="#7E1B22"/>
<path d="M83.5064 30.9696C83.4695 28.5455 83.5341 26.2044 82.8511 23.7157C81.9743 20.4805 80.433 17.531 78.4949 14.6829C78.3749 14.517 78.6518 14.3972 78.781 14.5354C82.8972 19.2454 87.1704 26.2689 84.5493 32.3153C84.2724 31.836 83.9217 31.3844 83.5064 30.9604V30.9696Z" fill="#7E1B22"/>
<path d="M66.7276 15.8996C66.626 15.577 67.1613 15.4572 67.2906 15.7613C68.0843 17.7338 69.0072 19.6418 70.1701 21.4668C71.1299 22.9692 72.3759 24.3056 73.4557 25.7343C73.0219 25.5868 72.5789 25.4486 72.1451 25.3103C72.3943 25.7251 72.8743 26.2689 73.4742 26.868C69.5333 24.4992 67.8997 19.7431 66.7368 15.8996H66.7276Z" fill="#7E1B22"/>
<path d="M76.7136 10.0375C76.4091 9.95453 76.5291 9.54897 76.8429 9.61349C88.121 11.9454 93.6032 21.5681 92.4218 31.1908C91.9419 30.7208 91.4805 30.2691 91.0559 29.8359C90.1515 21.1349 87.678 13.0238 76.7136 10.0283V10.0375Z" fill="#7E1B22"/>
<g style="mix-blend-mode:color-dodge" opacity="0.3">
<path d="M54.7388 10.0282C73.4649 16.9042 84.5585 14.9502 93.2248 6.48886C100.267 12.3971 103.359 23.8448 103.359 23.8448L100.165 21.9368C100.165 21.9368 100.091 23.1074 99.9068 25.0061C85.3522 14.812 62.556 16.13 49.8011 27.3196C49.6627 25.5591 49.6258 23.7065 49.718 21.7432C49.9211 15.8074 52.0531 12.2127 54.748 10.0375L54.7388 10.0282Z" fill="#812A0D"/>
</g>
<g style="mix-blend-mode:multiply" opacity="0.3">
<path d="M90.253 37.1544C91.019 38.371 92.0158 43.8184 85.8968 44.5373C79.0025 45.3484 79.5378 39.2006 80.5069 36.1866C81.2083 34.9699 89.1086 35.3294 90.253 37.1544Z" fill="#FF9585"/>
</g>
<path d="M90.4283 37.394C90.4283 37.394 85.26 35.8271 80.0362 38.0392C79.5655 36.3985 80.3038 34.2878 80.7099 34.2141C82.362 33.956 87.7611 34.6196 89.57 35.5506C90.5852 36.0759 90.4283 37.3848 90.4283 37.3848V37.394Z" fill="#852132"/>
<path d="M89.1824 42.7123C89.1824 43.9013 87.355 44.611 85.0938 44.611C82.8326 44.611 81.3929 43.9658 81.3929 42.7123C81.3929 41.4588 82.8696 39.5877 85.1307 39.5877C87.3919 39.5877 89.1824 41.385 89.1824 42.7123Z" fill="white"/>
<path d="M83.1833 42.786C83.1833 44.0948 84.1063 44.4543 85.1676 44.4543C86.229 44.4543 87.032 44.0948 87.032 42.786C87.032 41.4772 86.1644 40.3988 85.1123 40.3988C84.0601 40.3988 83.1833 41.468 83.1833 42.786Z" fill="#6D2132"/>
<path d="M83.3311 41.3297L84.9277 42.2975L83.0726 42.5464L83.3311 41.3297Z" fill="white"/>
<path d="M83.368 38.8687C84.3186 38.0853 85.9521 38.3065 86.912 38.9609C87.1243 39.1176 86.8843 39.4863 86.6536 39.348C85.8414 38.8319 84.4478 38.6752 83.691 39.348C83.4141 39.5877 83.0818 39.1084 83.368 38.8687Z" fill="#E46F50"/>
<path d="M81.3929 42.7123C81.7713 41.9473 82.4543 39.9195 85.2507 39.9195C87.8626 39.9195 88.7855 42.1039 89.1916 42.7123C89.1916 41.7537 88.3979 39.5877 85.5276 39.4218C82.2697 39.2374 81.2821 41.6154 81.4021 42.7123H81.3929Z" fill="#6D2132"/>
<g style="mix-blend-mode:multiply" opacity="0.3">
<path d="M60.5532 37.311C59.7872 38.5185 58.9473 43.8276 65.0571 44.5373C71.9514 45.3484 71.4345 39.2005 70.4654 36.1865C69.7825 34.9699 61.6976 35.4768 60.5532 37.311Z" fill="#FF9585"/>
</g>
<path d="M60.4701 37.311C60.4701 37.311 65.6662 35.8363 70.8438 38.1314C71.3514 36.5091 70.65 34.38 70.2439 34.3062C68.6011 34.0205 63.1835 34.592 61.3654 35.486C60.3317 35.993 60.4701 37.311 60.4701 37.311Z" fill="#852132"/>
<path d="M61.7715 42.7123C61.7715 43.9013 63.5989 44.611 65.8693 44.611C68.1397 44.611 69.5702 43.9658 69.5702 42.7123C69.5702 41.4588 68.0935 39.5877 65.8324 39.5877C63.5712 39.5877 61.7807 41.385 61.7807 42.7123H61.7715Z" fill="white"/>
<path d="M68.0012 42.7584C68.0012 44.0672 67.0783 44.4267 66.0169 44.4267C64.9556 44.4267 64.1619 44.0764 64.1619 42.7584C64.1619 41.4403 65.0202 40.3896 66.0816 40.3896C67.1429 40.3896 68.0012 41.4495 68.0012 42.7584Z" fill="#6D2132"/>
<path d="M64.2819 41.3205L65.8693 42.2791L64.0234 42.5279L64.2819 41.3205Z" fill="white"/>
<path d="M67.5859 38.8687C66.6353 38.0853 64.9925 38.3065 64.0419 38.9609C63.8296 39.1176 64.0696 39.4863 64.3003 39.348C65.1032 38.8319 66.4969 38.6752 67.2721 39.348C67.5398 39.5877 67.8813 39.1084 67.5859 38.8687Z" fill="#E46F50"/>
<path d="M69.561 42.7123C69.1826 41.9473 68.5273 39.9195 65.7308 39.9195C63.1282 39.9195 62.1683 42.1039 61.7715 42.7123C61.7715 41.7537 62.5652 39.5877 65.4355 39.4218C68.6934 39.2374 69.6902 41.6154 69.561 42.7123Z" fill="#6D2132"/>
<g style="mix-blend-mode:multiply" opacity="0.3">
<path d="M82.3066 58.0773C81.5867 56.5288 79.6024 56.667 77.4981 56.8053C76.7414 56.8514 76.2614 56.8975 75.4769 56.8975C74.6925 56.8975 74.2033 56.8514 73.4557 56.8053C71.3422 56.667 69.3579 56.5288 68.6473 58.0773C68.3427 58.7409 68.4812 59.8562 69.0257 60.9161C69.5148 61.8932 70.7423 63.626 73.428 64.1882C74.0741 64.3173 74.7571 64.3634 75.4862 64.3634C76.2153 64.3634 76.889 64.3173 77.5443 64.1882C80.23 63.626 81.4575 61.8932 81.9467 60.9161C82.482 59.8562 82.6296 58.7409 82.3251 58.0773H82.3066Z" fill="#FFA483"/>
</g>
<path d="M81.7159 58.3354C80.9868 56.75 78.4488 57.515 75.4769 57.515C72.5051 57.515 69.9763 56.75 69.238 58.3354C68.7119 59.4599 70.1332 63.7274 75.4769 63.7274C80.8207 63.7274 82.242 59.4599 81.7159 58.3354Z" fill="#921F33"/>
<path d="M70.4747 61.8194C71.4714 62.8702 73.0773 63.7366 75.4769 63.7366C77.8765 63.7366 79.4824 62.8702 80.4792 61.8194C78.9564 60.8424 77.212 60.4276 75.4769 60.4276C73.7418 60.4276 71.9975 60.8424 70.4747 61.8194Z" fill="#CD3735"/>
<path d="M75.4769 57.5242C72.8651 57.5242 70.5854 56.9343 69.5794 57.8745C70.77 59.0082 73.6034 59.6258 75.4769 59.6258C77.3505 59.6258 80.1839 59.0082 81.3744 57.8745C80.3592 56.9343 78.0888 57.5242 75.4769 57.5242Z" fill="white"/>
<path d="M75.4769 57.5242C72.8651 57.5242 70.5854 56.9343 69.5794 57.8745C70.004 58.28 70.65 58.6119 71.3699 58.8792C72.1452 58.5658 73.5388 58.1602 75.4769 58.1602C77.2028 58.1602 78.578 58.5566 79.4824 58.9252C80.2485 58.6487 80.9314 58.2985 81.3744 57.8745C80.3592 56.9343 78.0888 57.5242 75.4769 57.5242Z" fill="#DBEDE8"/>
<path d="M76.4275 93.5633C76.4275 93.5633 73.0312 78.6868 84.697 72.6496C93.0494 68.3267 95.1999 74.7327 93.5386 77.0922C91.8681 79.4518 76.4275 93.5633 76.4275 93.5633Z" fill="#F53823"/>
<path d="M93.797 75.9032C92.7818 76.0692 82.648 80.2722 79.3624 90.3742C87.5303 82.3092 95.2368 76.5853 95.2368 76.5853L93.797 75.9032Z" fill="#DA2117"/>
<path d="M74.757 93.4804C74.757 93.4804 77.9965 79.1846 66.3307 73.1473C57.969 68.8245 56.317 74.5483 57.406 77.0738C61.1623 78.2168 74.757 93.4896 74.757 93.4896V93.4804Z" fill="#F53823"/>
<path d="M57.9413 76.4655C58.9196 76.7973 68.9795 79.8943 70.5762 90.3926C63.8204 81.1109 56.437 77.0277 56.437 77.0277L57.9413 76.4655Z" fill="#DA2117"/>
<path d="M72.8466 117.5C73.3357 117.427 73.6772 116.966 73.6034 116.477C72.0713 106.182 73.9633 92.9826 73.9818 92.8536C74.0556 92.3559 73.7141 91.9042 73.2158 91.8305C72.7266 91.7567 72.2651 92.0978 72.1913 92.5863C72.1175 93.1393 70.2532 106.182 71.8221 116.744C71.896 117.233 72.3482 117.574 72.8466 117.5Z" fill="#DA2117"/>
<path d="M77.8858 117.841C77.3874 117.768 77.0551 117.307 77.129 116.818C78.6518 106.523 76.7783 93.3237 76.7598 93.1946C76.686 92.7061 77.0274 92.2453 77.5166 92.1715C78.0057 92.0978 78.4672 92.4388 78.541 92.9365C78.6241 93.4896 80.4884 106.532 78.9102 117.085C78.8364 117.574 78.3841 117.924 77.8858 117.851V117.841Z" fill="#DA2117"/>
<path d="M146.164 141.244C148.85 119.298 146.884 97.7663 144.872 89.305C144.013 85.6642 140.1 84.5766 139.362 88.245C139.362 88.245 132.218 119.676 130.28 138.617C131.268 139.75 144.595 142.239 146.164 141.234V141.244Z" fill="#FFB382"/>
<path d="M130.262 138.921C130.991 134.57 135.135 131.649 139.482 132.395C143.847 133.142 146.782 137.28 146.044 141.631C145.306 145.99 141.171 148.903 136.805 148.157C132.449 147.41 129.514 143.271 130.262 138.921Z" fill="#FFB382"/>
<path d="M134.747 75.2304C134.876 75.2212 135.569 67.4788 135.366 66.3819C135.292 64.2528 135.255 62.4001 135.227 61.0175C135.227 59.5428 135.366 57.7547 135.513 56.7408C135.827 54.372 138.66 54.1969 138.817 56.7039C138.845 57.3768 138.956 59.2571 139.057 60.9254C139.187 62.5199 139.214 64.7597 139.279 66.0225C139.5 68.1977 139.473 72.9261 139.436 72.9353C138.624 74.2902 134.729 75.2212 134.729 75.2212L134.747 75.2304Z" fill="url(#paint5_linear_1_6)"/>
<path d="M138.116 72.7233C140.396 72.0966 149.016 72.3454 150.003 73.1381C150.982 73.94 152.126 83.3691 147.401 88.5307C144.078 92.1347 140.313 89.8119 139.002 88.7796C137.544 87.6459 137.738 87.9224 135.504 84.5213C132.818 80.4381 135.08 74.493 135.08 74.493C135.08 74.493 135.818 73.3593 138.116 72.7233Z" fill="#FFB382"/>
<path d="M150.132 74.1151C149.163 73.3317 141.651 72.2625 139.233 72.8247C138.845 72.4653 138.448 71.8016 138.67 70.5942C139.223 67.7092 135.818 66.299 135.559 67.6539C135.227 69.4236 134.47 72.198 133.308 74.2718C132.44 75.7926 133.261 77.3411 133.667 78.9633C134.203 81.1478 135.366 84.8808 136.612 85.9868C137.867 87.0837 141.254 85.1388 141.254 85.1388L144.558 82.7055C145.472 78.2721 149.376 80.1708 150.382 76.4194C150.723 75.1659 150.409 74.3179 150.142 74.1059L150.132 74.1151Z" fill="#FF9B71"/>
<path d="M150.825 70.8154C151.092 72.0966 151.074 74.6128 150.548 75.8479C150.299 76.4194 149.459 77.166 148.914 77.295C148.351 77.4241 147.29 77.4056 146.939 76.2074C146.422 74.4285 146.413 71.9307 147.151 70.1794C147.761 68.7231 150.52 69.3499 150.834 70.8154H150.825Z" fill="#FFB382"/>
<path d="M147.779 69.5158C147.502 69.654 147.271 69.8568 147.142 70.1702C146.404 71.9214 146.413 74.4193 146.93 76.1982C147.733 74.0322 147.816 71.5804 147.779 69.5158Z" fill="#FF9B71"/>
<path d="M145.536 68.2622C146.395 68.5111 147.142 69.1563 147.244 70.1702C147.391 71.7647 146.976 75.1935 145.869 76.401C145.49 76.8158 144.733 77.3596 144.189 77.1937C143.617 77.0277 142.98 76.189 142.906 75.2949C142.768 73.6911 142.98 70.7693 143.57 69.1655C143.792 68.5756 144.733 68.041 145.546 68.2715L145.536 68.2622Z" fill="#FFB382"/>
<path d="M143.57 69.1563C142.98 70.7601 142.768 73.6819 142.906 75.2857C142.934 75.5991 143.026 75.9125 143.174 76.189C143.377 75.6544 143.626 74.7511 143.801 73.2764C144.023 71.5251 143.866 69.8937 143.718 68.9166C143.663 68.9904 143.607 69.0733 143.58 69.1563H143.57Z" fill="#FF9B71"/>
<path d="M139.491 68.2622C139.759 67.5341 141.162 67.3037 141.697 67.4972C142.306 67.7092 143.127 68.2807 143.349 69.0457C143.82 70.6679 143.57 74.8709 142.638 76.318C142.14 77.0831 140.986 77.4978 140.128 77.1384C139.242 76.7605 139.067 75.1935 139.085 74.2442C139.159 71.3223 139.103 69.3314 139.491 68.2715V68.2622Z" fill="#FFB382"/>
<path d="M132.671 75.3779C133.843 73.304 134.59 70.5296 134.932 68.7599C135.19 67.3958 138.596 68.806 138.042 71.7002C137.636 73.8202 136.972 75.424 136.972 75.424L138.291 78.1338C138.291 78.1338 140.266 78.5209 142.241 79.7099C143.626 80.5395 143.921 83.8208 143.921 83.8208L141.079 89.9963C141.079 89.9963 137.23 88.1897 135.984 87.0929C134.729 85.9868 133.566 82.2631 133.031 80.0694C132.634 78.4472 131.812 76.8895 132.671 75.3779Z" fill="#FFB382"/>
<path d="M4.94689 153.88C25.4082 162.333 37.7846 168.231 46.4786 168.563C50.2164 168.702 50.8256 161.263 47.4753 159.567C47.4753 159.567 29.4783 146.221 11.7212 139.299C10.3552 139.953 4.40237 152.101 4.94689 153.89V153.88Z" fill="#FFB382"/>
<path d="M11.4351 139.179C15.4406 141.05 17.148 145.815 15.2652 149.816C13.3732 153.816 8.60168 155.53 4.60541 153.65C0.599906 151.77 -1.11674 147.014 0.775263 143.023C2.65803 139.032 7.43879 137.308 11.4351 139.179Z" fill="#FFB382"/>
<path d="M43.9682 160.12C44.4297 158.977 45.5464 156.959 46.8293 156.212C48.1122 155.456 53.8528 151.76 55.2648 151.272C56.6861 150.774 58.2274 154.682 58.1628 157.761C58.089 160.83 57.5906 164.803 55.8094 166.185C54.0281 167.568 48.3983 169.651 44.0144 168.784C42.9899 168.582 43.0914 162.277 43.959 160.13L43.9682 160.12Z" fill="#FFB382"/>
<g style="mix-blend-mode:multiply" opacity="0.3">
<path d="M44.0513 160.471C44.5128 159.328 45.5464 156.959 46.8293 156.203C47.7891 155.641 51.2132 153.456 53.4744 152.166C53.5943 152.866 53.8435 153.53 54.3511 154.157C53.6866 155.355 53.0498 157.189 53.7236 158.406C52.4684 159.438 52.0161 161.752 53.2713 162.895C52.4499 163.448 51.7208 164.13 51.3332 165.052C50.844 166.241 51.1301 167.116 51.8685 168.029C49.4873 168.794 46.5432 169.282 44.0144 168.784C42.9899 168.582 43.1837 162.627 44.0513 160.48V160.471Z" fill="#FF9585"/>
</g>
<path d="M55.0526 151.309C56.0678 151.06 58.735 150.405 60.1286 150.064C61.5407 149.714 66.2107 150.829 66.5799 150.959C66.9491 151.088 70.1701 152.369 70.5762 152.599C71.3699 153.042 70.1885 154.691 69.2195 154.701C67.8628 154.719 65.2601 153.853 65.2601 153.853L61.0331 154.037C61.0331 154.037 57.3599 155.281 56.723 155.364C56.0678 155.447 55.0526 151.309 55.0526 151.309Z" fill="url(#paint6_linear_1_6)"/>
<path d="M57.4153 155.438C57.4153 155.438 61.0054 154.609 61.9468 154.618C62.8974 154.627 67.3367 155.383 67.8443 155.549C68.4073 155.733 71.5453 157.291 72.0621 157.659C73.1604 158.443 71.4437 160.425 70.1147 160.24C68.7857 160.056 66.8568 158.996 66.8568 158.996L61.4115 158.83L56.7784 159.733L57.406 155.447L57.4153 155.438Z" fill="url(#paint7_linear_1_6)"/>
<path d="M56.3539 162.913L56.3723 158.885C56.3723 158.885 61.0147 157.807 61.956 157.807C62.8974 157.807 67.632 158.627 67.632 158.627C67.632 158.627 70.6962 159.503 71.0653 159.862C72.3943 161.171 70.3731 162.462 69.5702 162.443C68.7672 162.415 66.5984 161.789 66.5984 161.789L62.3068 162.038L56.3539 162.913Z" fill="url(#paint8_linear_1_6)"/>
<path d="M55.5786 162.701L61.0885 162.793L65.8969 163.798C65.8969 163.798 68.2043 164.471 68.3242 164.978C68.4442 165.485 68.0197 167.328 66.6261 167.162C65.2324 166.987 63.7742 166.618 63.7742 166.618L60.0825 166.333L53.5667 167.125L55.5694 162.701H55.5786Z" fill="url(#paint9_linear_1_6)"/>
</g>
<defs>
<linearGradient id="paint0_linear_1_6" x1="60.9166" y1="359.541" x2="60.9127" y2="267.314" gradientUnits="userSpaceOnUse">
<stop stop-color="#1A3F55"/>
<stop offset="0.5" stop-color="#194157"/>
<stop offset="0.84" stop-color="#184A60"/>
<stop offset="1" stop-color="#175168"/>
</linearGradient>
<linearGradient id="paint1_linear_1_6" x1="92.1717" y1="359.398" x2="92.1663" y2="267.18" gradientUnits="userSpaceOnUse">
<stop stop-color="#1A3F55"/>
<stop offset="0.5" stop-color="#194157"/>
<stop offset="0.84" stop-color="#184A60"/>
<stop offset="1" stop-color="#175168"/>
</linearGradient>
<linearGradient id="paint2_linear_1_6" x1="75.4769" y1="71.1564" x2="75.4769" y2="16.4618" gradientUnits="userSpaceOnUse">
<stop stop-color="#FFA57C"/>
<stop offset="0.06" stop-color="#FFAA7E"/>
<stop offset="0.27" stop-color="#FFB885"/>
<stop offset="0.54" stop-color="#FFC088"/>
<stop offset="1" stop-color="#FFC38A"/>
</linearGradient>
<linearGradient id="paint3_linear_1_6" x1="75.9938" y1="37.2742" x2="75.9938" y2="6.26766" gradientUnits="userSpaceOnUse">
<stop stop-color="#C21F20"/>
<stop offset="0.33" stop-color="#A81F27"/>
<stop offset="0.75" stop-color="#8E202F"/>
<stop offset="1" stop-color="#852132"/>
</linearGradient>
<linearGradient id="paint4_linear_1_6" x1="75.4769" y1="54.0402" x2="75.4769" y2="36.0483" gradientUnits="userSpaceOnUse">
<stop stop-color="#FF6660"/>
<stop offset="0.15" stop-color="#FF846D"/>
<stop offset="0.31" stop-color="#FF9E79"/>
<stop offset="0.48" stop-color="#FFB182"/>
<stop offset="0.66" stop-color="#FFBD87"/>
<stop offset="0.84" stop-color="#FFC189"/>
</linearGradient>
<linearGradient id="paint5_linear_1_6" x1="160.331" y1="50.6713" x2="164.906" y2="69.2526" gradientUnits="userSpaceOnUse">
<stop stop-color="#F3936A"/>
<stop offset="0.3" stop-color="#F9A477"/>
<stop offset="0.63" stop-color="#FDAF7F"/>
<stop offset="1" stop-color="#FFB382"/>
</linearGradient>
<linearGradient id="paint6_linear_1_6" x1="70.5214" y1="151.122" x2="56.0288" y2="154.679" gradientUnits="userSpaceOnUse">
<stop stop-color="#F3936A"/>
<stop offset="0.3" stop-color="#F9A477"/>
<stop offset="0.63" stop-color="#FDAF7F"/>
<stop offset="1" stop-color="#FFB382"/>
</linearGradient>
<linearGradient id="paint7_linear_1_6" x1="72.0186" y1="156.023" x2="56.9254" y2="159.726" gradientUnits="userSpaceOnUse">
<stop stop-color="#F3936A"/>
<stop offset="0.3" stop-color="#F9A477"/>
<stop offset="0.63" stop-color="#FDAF7F"/>
<stop offset="1" stop-color="#FFB382"/>
</linearGradient>
<linearGradient id="paint8_linear_1_6" x1="71.2042" y1="158.822" x2="56.3889" y2="162.458" gradientUnits="userSpaceOnUse">
<stop stop-color="#F3936A"/>
<stop offset="0.3" stop-color="#F9A477"/>
<stop offset="0.63" stop-color="#FDAF7F"/>
<stop offset="1" stop-color="#FFB382"/>
</linearGradient>
<linearGradient id="paint9_linear_1_6" x1="68.0869" y1="163.429" x2="53.6839" y2="166.963" gradientUnits="userSpaceOnUse">
<stop stop-color="#F3936A"/>
<stop offset="0.3" stop-color="#F9A477"/>
<stop offset="0.63" stop-color="#FDAF7F"/>
<stop offset="1" stop-color="#FFB382"/>
</linearGradient>
<clipPath id="clip0_1_6">
<rect width="151" height="377" fill="white"/>
</clipPath>
</defs>
</svg>
